<?xml version="1.0" encoding="UTF-8"?>
<svg width="32px" height="32px" viewBox="0 0 32 32" version="1.1" xmlns="http://www.w3.org/2000/svg" xmlns:xlink="http://www.w3.org/1999/xlink">
    <!-- Generator: Sketch 44.1 (41455) - http://www.bohemiancoding.com/sketch -->
    <title>ic_32 copy 6</title>
    <desc>Created with Sketch.</desc>
    <defs></defs>
    <g id="Icons" stroke="none" stroke-width="1" fill="none" fill-rule="evenodd">
        <g id="ic_32-copy-6">
            <g id="Help-button" transform="translate(2.000000, 2.000000)" stroke-width="2" stroke="#1B2735">
                <circle id="Oval-4" cx="14" cy="14" r="14"></circle>
            </g>
            <path d="M11.0013411,12.6992188 L13.5794661,12.6992188 C13.5911849,11.3164062 14.3997786,10.2382812 16.0052474,10.2382812 C17.2122786,10.2382812 18.3489974,10.8476562 18.3489974,12.3242188 C18.3489974,13.4726562 17.6458724,14 16.5560286,14.8085938 C15.2904036,15.7109375 14.3411849,16.7890625 14.4232161,18.5117188 L14.4349349,19.3203125 L16.9896224,19.3203125 L16.9896224,18.6757812 C16.9896224,17.3632812 17.4935286,16.9765625 18.8529036,15.9570312 C19.9779036,15.125 21.1614974,14.1757812 21.1614974,12.1835938 C21.1614974,9.359375 18.7825911,8 16.1458724,8 C13.6380599,8 10.9310286,9.21875 11.0013411,12.6992188 Z M14.1068099,23.0117188 C14.1068099,23.9140625 14.8568099,24.5703125 15.7591536,24.5703125 C16.6614974,24.5703125 17.3997786,23.9140625 17.3997786,23.0117188 C17.3997786,22.109375 16.6614974,21.453125 15.7591536,21.453125 C14.8568099,21.453125 14.1068099,22.109375 14.1068099,23.0117188 Z" id="?" fill="#1B2735"></path>
        </g>
    </g>
</svg>