<?xml version="1.0" encoding="UTF-8"?>
<svg width="24px" height="24px" viewBox="0 0 24 24" version="1.1" xmlns="http://www.w3.org/2000/svg" xmlns:xlink="http://www.w3.org/1999/xlink">
    <!-- Generator: Sketch 47 (45396) - http://www.bohemiancoding.com/sketch -->
    <title>ic_logo_24</title>
    <desc>Created with Sketch.</desc>
    <defs></defs>
    <g id="Symbols" stroke="none" stroke-width="1" fill="none" fill-rule="evenodd">
        <g id="ic_logo_24">
            <g id="ic_logo">
                <rect id="bounds" x="0" y="0" width="24" height="24"></rect>
                <g id="Group-2" opacity="0.800000012" transform="translate(3.000000, 4.000000)" fill="#1B2735">
                    <g id="Group-Copy">
                        <path d="M5.35506066,1 L16.7777778,1 C17.3300625,1 17.7777778,1.44771525 17.7777778,2 L17.7777778,2 C17.7777778,2.55228475 17.3300625,3 16.7777778,3 L5.35506066,3 C5.44936123,2.68314529 5.5,2.34748631 5.5,2 C5.5,1.65251369 5.44936123,1.31685471 5.35506066,1 Z" id="Combined-Shape"></path>
                        <path d="M9.7995051,7 L16.7777778,7 L16.7777778,7 C17.3300625,7 17.7777778,7.44771525 17.7777778,8 L17.7777778,8 C17.7777778,8.55228475 17.3300625,9 16.7777778,9 L9.7995051,9 C9.89380568,8.68314529 9.94444444,8.34748631 9.94444444,8 C9.94444444,7.65251369 9.89380568,7.31685471 9.7995051,7 Z" id="Combined-Shape"></path>
                        <path d="M5.35506066,13 L16.7777778,13 C17.3300625,13 17.7777778,13.4477153 17.7777778,14 L17.7777778,14 L17.7777778,14 C17.7777778,14.5522847 17.3300625,15 16.7777778,15 L5.35506066,15 C5.44936123,14.6831453 5.5,14.3474863 5.5,14 C5.5,13.6525137 5.44936123,13.3168547 5.35506066,13 Z" id="Combined-Shape"></path>
                        <path d="M2,4 C3.1045695,4 4,3.1045695 4,2 C4,0.8954305 3.1045695,0 2,0 C0.8954305,0 0,0.8954305 0,2 C0,3.1045695 0.8954305,4 2,4 Z" id="Oval" fill-rule="nonzero"></path>
                        <path d="M6.44444444,10 C7.54901394,10 8.44444444,9.1045695 8.44444444,8 C8.44444444,6.8954305 7.54901394,6 6.44444444,6 C5.33987494,6 4.44444444,6.8954305 4.44444444,8 C4.44444444,9.1045695 5.33987494,10 6.44444444,10 Z" id="Oval-Copy" fill-rule="nonzero"></path>
                        <path d="M2,16 C3.1045695,16 4,15.1045695 4,14 C4,12.8954305 3.1045695,12 2,12 C0.8954305,12 0,12.8954305 0,14 C0,15.1045695 0.8954305,16 2,16 Z" id="Oval-Copy-2" fill-rule="nonzero"></path>
                    </g>
                </g>
            </g>
        </g>
    </g>
</svg>