<?xml version="1.0" encoding="UTF-8"?>
<svg width="32px" height="32px" viewBox="0 0 32 32" version="1.1" xmlns="http://www.w3.org/2000/svg" xmlns:xlink="http://www.w3.org/1999/xlink">
    <!-- Generator: Sketch 44.1 (41455) - http://www.bohemiancoding.com/sketch -->
    <title>ic</title>
    <desc>Created with Sketch.</desc>
    <defs></defs>
    <g id="Icons" stroke="none" stroke-width="1" fill="none" fill-rule="evenodd">
        <g id="ic" stroke="#1B2735" stroke-width="1.5">
            <path d="M15.8231302,20.9411232 L11.3438797,23.2611449 L11.3438797,23.2611449 C11.0986759,23.3881478 10.7969428,23.2923271 10.6699399,23.0471234 C10.6203294,22.9513408 10.6030247,22.8420828 10.6206086,22.7356577 L11.4429158,17.7587111 L11.4429158,17.7587111 C11.4693898,17.5984795 11.4163928,17.4353718 11.3007932,17.3213028 L7.71015688,13.7782085 L7.71015688,13.7782085 C7.5135978,13.5842519 7.51148801,13.2676765 7.70544455,13.0711174 C7.78120873,12.9943366 7.87977181,12.9441162 7.98642186,12.9279523 L12.9738863,12.1720519 L12.9738863,12.1720519 C13.1344564,12.1477158 13.2732041,12.0469097 13.345968,11.9017187 L15.6060833,7.39194423 L15.6060833,7.39194423 C15.7298068,7.14506957 16.030236,7.04523584 16.2771107,7.16895937 C16.373546,7.21728882 16.4517661,7.29550892 16.5000955,7.39194423 L18.7602108,11.9017187 L18.7602108,11.9017187 C18.8329746,12.0469097 18.9717224,12.1477158 19.1322925,12.1720519 L24.1197569,12.9279523 L24.1197569,12.9279523 C24.3927814,12.9693319 24.5805666,13.2242067 24.539187,13.4972311 C24.5230231,13.6038812 24.4728027,13.7024443 24.3960219,13.7782085 L20.8053856,17.3213028 L20.8053856,17.3213028 C20.6897859,17.4353718 20.636789,17.5984795 20.663263,17.7587111 L21.4855702,22.7356577 L21.4855702,22.7356577 C21.5305851,23.0081063 21.3462135,23.2654614 21.0737649,23.3104762 C20.9673397,23.3280601 20.8580817,23.3107553 20.7622991,23.2611449 L16.2830485,20.9411232 L16.2830485,20.9411232 C16.1388402,20.8664306 15.9673386,20.8664306 15.8231302,20.9411232 Z" id="Star"></path>
        </g>
    </g>
</svg>