<?xml version="1.0" encoding="UTF-8"?>
<svg width="18px" height="17px" viewBox="0 0 18 17" version="1.1" xmlns="http://www.w3.org/2000/svg" xmlns:xlink="http://www.w3.org/1999/xlink">
    <!-- Generator: Sketch 47 (45396) - http://www.bohemiancoding.com/sketch -->
    <title>ic_Star</title>
    <desc>Created with Sketch.</desc>
    <defs></defs>
    <g id="Web" stroke="none" stroke-width="1" fill="none" fill-rule="evenodd" opacity="0.794553895">
        <g id="extra-4pt-after-indent-copy-2" transform="translate(-951.000000, -11.000000)" stroke-width="1.5" stroke="#1B2735">
            <g id="Header">
                <g id="Fadeout">
                    <g id="ic_star_24" transform="translate(948.000000, 8.000000)">
                        <path d="M11.9505964,16.4273617 L7.81509925,18.5693368 L7.81509925,18.5693368 C7.69249739,18.6328383 7.54163083,18.5849279 7.47812937,18.4623261 C7.45332413,18.4144348 7.44467175,18.3598058 7.4534637,18.3065932 L8.21266419,13.711595 L8.21266419,13.711595 C8.23913816,13.5513634 8.18614124,13.3882557 8.07054162,13.2741867 L4.75546333,10.0030019 L4.75546333,10.0030019 C4.65718379,9.9060236 4.65612889,9.74773587 4.75310716,9.64945633 C4.79098925,9.61106593 4.84027079,9.58595573 4.89359582,9.57787379 L9.49830467,8.87998382 L9.49830467,8.87998382 C9.65887483,8.85564779 9.79762256,8.75484166 9.8703864,8.60965062 L11.9570525,4.44597211 L11.9570525,4.44597211 C12.0189143,4.32253478 12.1691289,4.27261792 12.2925662,4.33447969 C12.3407838,4.35864441 12.3798939,4.39775446 12.4040586,4.44597211 L14.4907247,8.60965062 L14.4907247,8.60965062 C14.5634885,8.75484166 14.7022363,8.85564779 14.8628064,8.87998382 L19.4675153,9.57787379 L19.4675153,9.57787379 C19.6040275,9.59856359 19.6979201,9.726001 19.6772303,9.86251321 C19.6691484,9.91583824 19.6440382,9.96511978 19.6056478,10.0030019 L16.2905695,13.2741867 L16.2905695,13.2741867 C16.1749699,13.3882557 16.1219729,13.5513634 16.1484469,13.711595 L16.9076474,18.3065932 L16.9076474,18.3065932 C16.9301548,18.4428175 16.8379691,18.571495 16.7017447,18.5940025 C16.6485322,18.6027944 16.5939032,18.594142 16.5460119,18.5693368 L12.4105147,16.4273617 L12.4105147,16.4273617 C12.2663064,16.3526692 12.0948047,16.3526692 11.9505964,16.4273617 Z" id="Star"></path>
                    </g>
                </g>
            </g>
        </g>
    </g>
</svg>