<?xml version="1.0" encoding="UTF-8"?>
<svg width="16px" height="16px" viewBox="0 0 16 16" version="1.1" xmlns="http://www.w3.org/2000/svg" xmlns:xlink="http://www.w3.org/1999/xlink">
    <!-- Generator: Sketch 47 (45396) - http://www.bohemiancoding.com/sketch -->
    <title>ic_32 copy 9</title>
    <desc>Created with Sketch.</desc>
    <defs></defs>
    <g id="Web" stroke="none" stroke-width="1" fill="none" fill-rule="evenodd" opacity="0.8">
        <g id="extra-4pt-after-indent-copy-2" transform="translate(-912.000000, -11.000000)" fill="#1B2735">
            <g id="Header">
                <g id="Fadeout">
                    <g id="search" transform="translate(696.000000, 5.000000)">
                        <g id="ic_search_24" transform="translate(212.000000, 2.000000)">
                            <g id="Material/Icons-black/search" transform="translate(4.000000, 4.000000)">
                                <path d="M10.4580903,6.18832542 C11.3500286,7.22840318 11.89251,8.57675376 11.89251,10.054085 C11.89251,13.3380596 9.23041738,16 5.946255,16 C2.66209262,16 0,13.3380596 0,10.054085 C0,6.77011034 2.66209262,4.10816992 5.946255,4.10816992 C7.42367067,4.10816992 8.77118353,4.64970556 9.81132075,5.54067806 L10.0638079,4.565548 L14.6360206,0 L16,1.36390144 L11.4369354,5.93768224 L10.4580903,6.18832542 Z M5.946255,5.93768224 C3.67204117,5.93768224 1.82961692,7.78000114 1.82961692,10.054085 C1.82961692,12.327254 3.67204117,14.1704877 5.946255,14.1704877 C8.21955403,14.1704877 10.0628931,12.327254 10.0628931,10.054085 C10.0628931,7.78000114 8.21955403,5.93768224 5.946255,5.93768224 L5.946255,5.93768224 Z" id="Shape" transform="translate(8.000000, 8.000000) scale(1, -1) translate(-8.000000, -8.000000) "></path>
                            </g>
                        </g>
                    </g>
                </g>
            </g>
        </g>
    </g>
</svg>